<svg x="0px" y="0px" viewBox="0 0 1000 1000"><defs><linearGradient id="btg" x1="0%" y1="100%" x2="100%" y2="0%"><stop offset="5%"  stop-color="#4286f4"/><stop offset="99%" stop-color="#4286ff"/></linearGradient></defs><g fill="url(#btg)" transform="translate(0.000000,511.000000) scale(0.100000,-0.100000)"><path d="M3089.5,4611.7c-46.6-25.3-110.7-83.5-143.7-128.2l-58.3-83.5l-9.7-1649.2l-9.7-1649.2L1770.5,2199.1L673,3296.6l-285.5-285.5L100,2723.6l1305.4-1305.4L2712.7,110.9L1405.4-1196.4L100-2501.7l285.5-287.5L673-3074.8l1101.4,1101.4L2877.8-870v-1633.6v-1633.6l44.7-85.5c64.1-118.5,178.7-196.2,312.7-207.9c205.9-17.5,159.3-54.4,1350,1130.5c740.1,738.1,1105.3,1115,1130.5,1167.4c44.7,95.2,46.6,238.9,7.8,336c-21.4,48.6-318.6,361.3-947.9,990.7l-916.9,916.8l916.9,918.8c629.4,627.4,926.6,940.2,947.9,988.7c36.9,93.2,36.9,229.2,0,322.4C5680.8,2440,3559.6,4567,3450.8,4619.5C3342,4670,3196.3,4668,3089.5,4611.7z M4762,2179.7c0-11.7-240.9-260.3-534.2-553.6l-534.2-534.2v1087.8v1087.8l534.2-534.2C4521.1,2440,4762,2191.3,4762,2179.7z M4762-1957.8c0-11.7-240.9-260.3-534.2-553.6l-534.2-534.2v1087.8V-870l534.2-534.2C4521.1-1697.5,4762-1946.2,4762-1957.8z"/><path d="M8046.7,3619.1c-256.4-256.4-277.8-283.6-252.5-316.6c13.6-19.4,77.7-91.3,141.8-161.2c474-514.8,858.6-1254.9,1027.6-1971.6c87.4-373,118.5-644.9,116.5-1068.4c0-753.7-149.6-1385-481.7-2041.6c-204-404-341.9-600.2-777-1107.2l-56.3-68l287.5-285.6l285.5-285.5l106.8,116.6c1237.4,1346.1,1715.2,3123.5,1319,4891.2c-157.3,707.1-489.5,1420-932.4,2008.5c-136,180.6-472,569.1-493.4,569.1C8332.3,3898.8,8200.2,3772.5,8046.7,3619.1z"/><path d="M6877.4,2447.7l-285.5-287.5l126.3-145.7c326.3-376.8,553.6-835.3,660.4-1340.3c50.5-235,50.5-891.6,0-1126.6c-108.8-512.8-343.8-981-685.7-1371.4l-103-116.6l285.5-285.5l287.5-285.6l79.7,81.6c512.8,534.2,866.3,1285.9,969.3,2061C8252.6-62,8239,495.5,8182.7,785c-130.1,687.6-456.5,1342.3-907.1,1827.9L7161,2735.2L6877.4,2447.7z"/><path d="M5696.3,1268.7l-277.8-279.7l81.6-103c359.4-456.5,359.4-1093.6,0-1550.1l-81.6-102.9l283.6-283.6l281.7-283.6l71.9,66c77.7,75.8,250.6,330.2,324.4,475.9c314.7,635.2,258.3,1460.7-143.7,2051.3c-83.6,124.3-225.4,289.4-248.7,289.4C5981.9,1548.4,5849.8,1422.1,5696.3,1268.7z"/></g></svg>
