<svg xmlns="http://www.w3.org/2000/svg" viewBox="0 0 424 166"><title>keyboard-solid</title><path d="M416.24,0H7.76A7.77,7.77,0,0,0,0,7.76V158.24A7.77,7.77,0,0,0,7.76,166H416.24a7.77,7.77,0,0,0,7.76-7.76V7.76A7.77,7.77,0,0,0,416.24,0ZM363,10h21V31H363ZM79,73h22V94H79ZM58,62V41H80.52V62Zm32.16,0V41h22.52V62ZM110,73h22V94H110Zm12.33-11V41h22.52V62ZM141,73h22V94H141Zm13.49-11V41H177V62Zm4,42h21.81v21H158.48ZM172,94V73h22V94Zm14.66-32V41h22.52V62Zm1.56,42H210v21H188.22ZM203,94V73h22V94Zm15.82-32V41h22.52V62ZM218,104h21.81v21H218Zm16-10V73h22V94Zm17-32V41h22.52V62Zm-3.28,42h21.81v21H247.71ZM265,94V73h22V94Zm18.15-32V41h22.52V62Zm-5.7,42h21.81v21H277.45ZM296,94V73h22V94Zm19.32-32V41h22.52V62ZM327,73h22V94H327Zm20.48-11V41H370V62ZM331,10h21V31H331Zm-32,0h21V31H299Zm-32,0h21V31H267Zm-32,0h21V31H235Zm-32,0h21V31H203Zm-32,0h21V31H171Zm-32,0h21V31H139Zm-32,0h21V31H107ZM75,10H96V31H75ZM43,10H64V31H43ZM11,10H32V31H11Zm0,31H49V62H11Zm0,32H70V94H11Zm0,31H91v21H11Zm24.24,50H11V133H35.24Zm30.92,0H41.92V133H66.16Zm30.92,0H72.84V133H97.08ZM99,104h21.81v21H99Zm29,50H103.76V133H128Zm.74-50h21.81v21H128.74ZM293,154H135V133H293Zm30.24,0H299V133h24.24ZM329,125H307.19V104H329Zm25.16,29H329.92V133h24.24Zm30.92,0H360.84V133h24.24ZM416,154H391.76V133H416Zm0-29H336V104h80Zm0-31H357V73h59Zm0-32H378V41h38Zm0-31H395V10h21Z"/></svg>