<svg viewBox="0 0 40 40">
        <path 
              d="
                 M 20, 20
                 m -20, 0
                 a 20,20 0 1,0 40,0
                 a 20,20 0 1,0 -40,0
                 "  style="fill:#FFFFFF"
              />
<path 
              d="
                 M 11, 20
                 m -3, 0
                 a 3,3 0 1,0 6,0
                 a 3,3 0 1,0 -6,0
                 "  style="fill:#292929"
              />
<path 
              d="
                 M 20, 20
                 m -3, 0
                 a 3,3 0 1,0 6,0
                 a 3,3 0 1,0 -6,0
                 "  style="fill:#292929"
              />
<path 
              d="
                 M 29, 20
                 m -3, 0
                 a 3,3 0 1,0 6,0
                 a 3,3 0 1,0 -6,0
                 "  style="fill:#292929"
              />
</svg>
