<?xml version="1.0" standalone="no"?>
<!DOCTYPE svg PUBLIC "-//W3C//DTD SVG 20010904//EN"
 "http://www.w3.org/TR/2001/REC-SVG-20010904/DTD/svg10.dtd">
<svg version="1.0" xmlns="http://www.w3.org/2000/svg"
 width="1280.000000pt" height="962.000000pt" viewBox="0 0 1280.000000 962.000000"
 preserveAspectRatio="xMidYMid meet">
<g transform="translate(0.000000,962.000000) scale(0.100000,-0.100000)"
fill="#FFFFFF" stroke="none">
<path d="M6585 9612 c6 -5 134 -85 285 -177 151 -92 311 -192 354 -223 207
-145 447 -366 607 -558 366 -439 543 -884 625 -1570 22 -183 30 -666 14 -889
-6 -99 -13 -181 -14 -182 -1 -1 -379 -7 -841 -13 -462 -6 -964 -15 -1116 -18
l-275 -7 1670 -2117 c919 -1165 1676 -2122 1682 -2128 8 -8 440 540 1618 2052
l1606 2062 0 113 0 113 -883 0 -884 0 0 278 c0 857 -198 1550 -596 2082 -80
108 -267 299 -374 383 -528 416 -1333 676 -2418 783 -191 18 -1076 32 -1060
16z"/>
<path d="M1609 5843 l-1604 -2058 -3 -117 -3 -118 884 0 884 0 0 -277 c0 -858
198 -1551 596 -2083 80 -108 267 -299 374 -383 528 -416 1333 -676 2418 -783
191 -18 1076 -32 1060 -16 -5 5 -134 85 -285 177 -151 92 -311 192 -354 223
-205 144 -449 368 -607 558 -366 439 -543 884 -625 1570 -22 183 -30 666 -14
889 6 99 13 181 14 182 1 1 379 7 841 13 462 6 964 15 1116 18 l275 7 -1670
2117 c-919 1165 -1676 2122 -1682 2128 -8 8 -439 -538 -1615 -2047z"/>
</g>
</svg>
