<svg viewBox="0 0 1000 1000" xmlns="http://www.w3.org/2000/svg" xmlns:xlink="http://www.w3.org/1999/xlink"><linearGradient id="a" x1="0%" x2="100%" y1="100%" y2="0%"><stop offset=".05"/><stop offset=".99"/></linearGradient><path d="m0 500a500 500 0 1 0 1000 0 500 500 0 1 0 -1000 0" fill="#4286f4"/><path d="m3089.5 4611.7c-46.6-25.3-110.7-83.5-143.7-128.2l-58.3-83.5-9.7-1649.2-9.7-1649.2-1097.6 1097.5-1097.5 1097.5-285.5-285.5-287.5-287.5 1305.4-1305.4 1307.3-1307.3-1307.3-1307.3-1305.4-1305.3 285.5-287.5 287.5-285.6 1101.4 1101.4 1103.4 1103.4v-1633.6-1633.6l44.7-85.5c64.1-118.5 178.7-196.2 312.7-207.9 205.9-17.5 159.3-54.4 1350 1130.5 740.1 738.1 1105.3 1115 1130.5 1167.4 44.7 95.2 46.6 238.9 7.8 336-21.4 48.6-318.6 361.3-947.9 990.7l-916.9 916.8 916.9 918.8c629.4 627.4 926.6 940.2 947.9 988.7 36.9 93.2 36.9 229.2 0 322.4-42.7 99.3-2163.9 2226.3-2272.7 2278.8-108.8 50.5-254.5 48.5-361.3-7.8zm1672.5-2432c0-11.7-240.9-260.3-534.2-553.6l-534.2-534.2v1087.8 1087.8l534.2-534.2c293.3-293.3 534.2-542 534.2-553.6zm0-4137.5c0-11.7-240.9-260.3-534.2-553.6l-534.2-534.2v1087.8 1087.8l534.2-534.2c293.3-293.3 534.2-542 534.2-553.6z" fill="url(#a)" transform="matrix(.08 0 0 -.08 250 511)"/></svg>