<svg viewBox="0 0 40 40" xmlns="http://www.w3.org/2000/svg"><path d="m0 20a20 20 0 1 0 40 0 20 20 0 1 0 -40 0" fill="#656565"/><g fill="#292929"><path d="m8 20a3 3 0 1 0 6 0 3 3 0 1 0 -6 0"/><path d="m17 20a3 3 0 1 0 6 0 3 3 0 1 0 -6 0"/><path d="m26 20a3 3 0 1 0 6 0 3 3 0 1 0 -6 0"/></g><path d="m18.886139 39.950763c-1.974464-.151181-3.57587-.462337-5.243136-1.018752-6.2702936-2.092575-11.1464595-7.245228-12.8964776-13.627729-.50475627-1.840899-.70388044-3.3568-.70260724-5.348836.00111961-1.751736.16139728-3.078947.57392184-4.752476 1.7552006-7.1204933 7.303215-12.7219963 14.406912-14.54580955 1.759578-.4517565 2.989617-.60012688 4.975248-.60012688 1.619594 0 2.286597.05537 3.613861.29999811 5.776756 1.06471372 10.815647 4.63831732 13.735679 9.74140332 1.402705 2.451385 2.294247 5.314033 2.553369 8.198595.06995.778649.07024 2.666295.000535 3.415841-.289669 3.114713-1.221264 5.977447-2.790847 8.576101-3.248272 5.377943-8.664645 8.843209-14.959132 9.570493-.616647.07125-2.750458.130874-3.267326.0913zm-7.242536-17.004728c.489974-.100791 1.053626-.413782 1.447391-.803723.789996-.782323 1.088791-1.828572.821113-2.875183-.14662-.573279-.360611-.938287-.815755-1.39145-.608255-.605609-1.228121-.867548-2.067156-.873526-.544077-.0039-.847791.06588-1.3707391.314833-.7331054.348997-1.3185985 1.05591-1.570247 1.895885-.1254366.418695-.1167767 1.228987.017552 1.642288.417744 1.285307 1.5450317 2.134185 2.8447721 2.142189.236902.0015.548783-.02163.693069-.05131zm9.076194-.02072c1.670836-.422928 2.679742-2.223571 2.149439-3.836205-.159752-.4858-.375374-.829555-.762047-1.21489-.383185-.38186-.85595-.660253-1.344427-.791682-.381129-.102547-1.144395-.102547-1.525524 0-1.073722.288895-1.957075 1.221116-2.189173 2.31028-.327114 1.535047.669283 3.1268 2.209361 3.529476.361244.09445 1.09517.09597 1.462371.003zm9.1217-.04038c.967106-.280114 1.734037-1.039015 2.048555-2.027106.134442-.422361.145195-1.233442.02181-1.644958-.251926-.840226-.837254-1.546908-1.570318-1.895885-.522948-.248952-.826662-.318709-1.370739-.314833-.784379.0056-1.434445.266145-2.010126.805688-1.002844.93989-1.251952 2.338913-.635857 3.571049.355406.71078 1.175038 1.360932 1.953247 1.549363.440735.106717 1.109388.08819 1.563429-.04332z" fill="#ececec" stroke="#ededed" stroke-width=".049505"/><path d="m19.234974 40.005601c-.0277-.0277-.717834-.08462-1.14339-.09431-.129332-.0029-.235148-.02376-.235148-.04627 0-.0225-.08354-.03623-.185644-.03051-.102104.0057-.224961-.0062-.273017-.02655-.04805-.02032-.131595-.02539-.185643-.01125-.05405.01413-.09827.0031-.09827-.02459 0-.02832-.07569-.04145-.173267-.03006-.0953.01113-.173267-.000099-.173267-.02495 0-.02485-.06683-.03537-.148515-.02339-.08168.01199-.148515.000782-.148515-.0249 0-.02569-.05492-.0362-.122035-.02337-.06712.01283-.128382.0052-.136139-.0169-.0078-.02213-.114351-.04674-.236875-.05469-.122525-.008-.233911-.02672-.247525-.04172-.0427-.04704-.551245-.147711-.598528-.118488-.02477.01531-.04504.0016-.04504-.03037 0-.03335-.04126-.04741-.09664-.03293-.05315.0139-.103487.0047-.111862-.02041-.0084-.02512-.08184-.0506-.163264-.05663-.08142-.006-.160858-.02825-.176526-.04939-.01567-.02114-.09916-.04342-.185545-.04951-.08638-.0061-.157103-.03015-.157157-.05349-.00005-.02333-.03208-.03015-.07116-.01516-.03908.015-.07807.0098-.08663-.01161-.02233-.05575-.638873-.255665-.690345-.223853-.02368.01463-.04305.000634-.04305-.03112 0-.03175-.03342-.0449-.07426-.02923s-.07426.0051-.07426-.02358c0-.02864-.02765-.04286-.06144-.0316s-.09236-.01044-.130145-.04823c-.03779-.03779-.09781-.05754-.133382-.04389-.03557.01365-.07169.0058-.08025-.01737-.0086-.0232-.06013-.0498-.114585-.0591-.05446-.0093-.129728-.04604-.167274-.08164-.03754-.0356-.09881-.05301-.136139-.03868-.03733.01432-.06787.0066-.06787-.01706 0-.05377-.278074-.154258-.317574-.114759-.01593.01593-.02896.0064-.02896-.02128 0-.05573-.357725-.230291-.471921-.230291-.03995 0-.07263-.01988-.07263-.04417 0-.0243-.02228-.03041-.0495-.01358-.02723.01683-.0495.0057-.0495-.02475 0-.03044-.02228-.04158-.0495-.02475-.02723.01683-.04951.0057-.04951-.02475 0-.03044-.02228-.04158-.0495-.02475-.02723.01683-.0495.0057-.0495-.02475 0-.03044-.02228-.04158-.0495-.02475-.02723.01683-.0495.0057-.0495-.02475 0-.03044-.02228-.04158-.0495-.02475-.02723.01683-.0495.0057-.0495-.02475 0-.03044-.02228-.04158-.0495-.02475-.02723.01683-.04951.0057-.04951-.02475 0-.03044-.02228-.04158-.0495-.02475-.02723.01683-.0495.0057-.0495-.02475 0-.03044-.02228-.04158-.0495-.02475-.02723.01683-.0495.0076-.0495-.02056 0-.06424-.27352-.209221-.315506-.167235-.01707.01707-.03103.0037-.03103-.02965 0-.03337-.02228-.04691-.0495-.03008-.02723.01683-.0495.0076-.0495-.02056 0-.02814-.06683-.08572-.1485145-.127956-.081683-.04224-.1485148-.06083-.1485148-.04131s-.032708-.0078-.072683-.06061c-.039975-.05285-.073733-.07382-.075015-.04659-.00128.02724-.018693.02402-.038703-.0072-.036384-.05669-1.2492421-.872795-1.2492421-.840592 0 .0094-.072401-.04496-.1608911-.120777-.0885586-.075777-.4505635-.367035-.8045239-.647205-1.1626718-.92029-2.6545302-2.490023-3.5894445-3.776812-.1695316-.233338-.3292336-.424251-.3548933-.424251-.02566 0-.032789-.02244-.015842-.04986.016946-.02742-.00389-.06317-.046299-.07944-.042411-.01627-.064688-.04969-.049505-.07426s-.00709-.05798-.049505-.07426c-.042411-.01627-.064688-.04969-.049505-.07426s-.00351-.05661-.041539-.0712-.069144-.05411-.069144-.08781c0-.08466-.1659799-.330502-.2231367-.330502-.025703 0-.033467-.02146-.017253-.0477.016214-.02623-.010318-.08935-.058959-.140264-.048642-.05091-.095233-.124124-.1035363-.162696-.0083-.03857-.046942-.09461-.085864-.124533-.038922-.02992-.056262-.06891-.038533-.08663.017729-.01773.00253-.03223-.033773-.03223-.036304 0-.052044-.01396-.034978-.03103.041986-.04199-.1029939-.315506-.167235-.315506-.028135 0-.037387-.02228-.02056-.0495.016828-.02723.00329-.0495-.030082-.0495-.033373 0-.046883-.01379-.030024-.03065.035638-.03564-.3020447-.728577-.3670865-.753278-.024047-.0091-.03113-.03698-.01574-.06188.015391-.0249.00308-.04528-.027366-.04528-.030442 0-.04158-.02228-.024752-.0495.016828-.02723.00569-.0495-.024753-.0495-.030442 0-.04158-.02228-.024752-.0495.016828-.02723.007-.0495-.021831-.0495-.028835 0-.049789-.01671-.046564-.03713.016921-.107164-.014166-.211627-.083656-.281117-.042786-.04279-.066223-.07779-.05208-.07779.014142 0 .00242-.06683-.026059-.148515-.028475-.08168-.071171-.148515-.094881-.148515s-.031388-.03054-.017063-.06787-.00487-.09879-.04266-.136581c-.037789-.03779-.060352-.09377-.050142-.124399.01021-.03063-.010277-.08612-.045527-.12332s-.065334-.08991-.066852-.117133c-.00656-.117593-.08576-.321782-.1248145-.321782-.023421 0-.029762-.03342-.014089-.07426.015672-.04084.00453-.07426-.024752-.07426-.029286 0-.040425-.03342-.024753-.07426s.00453-.07426-.024752-.07426c-.029286 0-.040425-.03342-.024752-.07426.015672-.04084.00453-.07426-.024752-.07426-.029286 0-.0404249-.03342-.024753-.07426.015672-.04084.00453-.07426-.0247525-.07426-.0292863 0-.0404249-.03342-.0247525-.07426s.004534-.07426-.0247525-.07426c-.0292863 0-.0404249-.03342-.0247525-.07426s.009404-.07431-.01393-.07437c-.0233339-.000049-.0450291-.07147-.0482116-.158694-.003183-.08722-.0311678-.167042-.0621896-.177383-.0310218-.01034-.0447884-.03759-.0305925-.06056.0326534-.05283-.0833064-.494335-.12983668-.494335-.0190315 0-.0229515-.04455-.008711-.09901.0142404-.05446.003102-.09901-.0247525-.09901-.0278543 0-.0389929-.04455-.0247525-.09901.0142404-.05445.001715-.09901-.0278334-.09901-.0295488 0-.0413116-.03235-.0261395-.07189.015172-.03954.0110964-.09857-.009057-.131176-.0201534-.03261-.0433821-.134396-.0516193-.226193-.008237-.0918-.0320199-.194279-.0528504-.227736-.0208306-.03346-.0316764-.108826-.0241018-.167488.007575-.05866-.008848-.120638-.0364941-.137724-.0276464-.01709-.0381264-.0627-.0232889-.101368.0148374-.03867.0101627-.09751-.0103882-.13076-.020551-.03325-.0429195-.117858-.0497078-.188014-.006788-.07016-.0249869-.216664-.0404414-.325575s-.0277174-.271321-.0272509-.360911c.00046634-.08959-.015422-.189217-.0353078-.221393-.0198857-.03218-.03012-.142099-.0227427-.244273.007377-.102174-.001256-.209508-.0191861-.238518-.01792954-.02901-.04260078-.62549-.05482497-1.325509-.01222419-.70002-.03229781-1.335133-.04460803-1.411362-.01466287-.0908-.00401287-.127247.0308796-.105682.03673804.02271.0486789-.08803.0384895-.356937-.0081248-.214419.0019262-.416872.02233544-.449895.0204093-.03302.0374788-.14419.0379324-.247038.001362-.308882.0285382-.591401.0621138-.645728.0173871-.02813.0316098-.103506.031606-.167497-.00001351-.23052.0257486-.413899.0619406-.440905.0202913-.01514.0425685-.143075.0495049-.284298.006936-.141224.0319166-.25693.0555115-.257125.023595-.000198.032402-.05527.0195713-.12239s-.002363-.129024.0232601-.137565c.0256238-.0085.0502325-.10944.0546861-.224219.004453-.11478.0274035-.208816.0509999-.20897.0235964-.000149.0312513-.04484.0170109-.09929-.0142404-.05446-.003102-.09901.0247525-.09901.0278542 0 .0389929-.04455.0247525-.09901s-.003102-.09901.0247525-.09901c.0278542 0 .0392722-.04349.0253732-.09664s-.004716-.103488.0204055-.111862c.025122-.0084.0506037-.08184.0566258-.163265.006022-.08142.0307356-.162395.0549186-.179941.0241831-.01755.0464603-.101035.0495049-.18553.003045-.0845.0246271-.15368.047961-.153742.0233339-.00005.0301546-.03209.0151573-.07117-.0149974-.03908-.009775-.07807.0116062-.08663.0557445-.02233.25566444-.638872.22385254-.690345-.014634-.02368-.0006319-.04305.031116-.04305.031748 0 .0449-.03342.029228-.07426s-.00987-.07426.012884-.07426c.047492 0 .3796379-.834704.369357-.928218-.00374-.03404.00942-.06188.029255-.06188.054185 0 .1564262-.248136.1239154-.30074-.015567-.02519-.0034-.0458.027045-.0458.030442 0 .042756-.02037.027366-.04528-.01539-.0249-.00821-.05275.015947-.06188.065193-.02464.6003639-1.113852.5647682-1.149448-.016788-.01679-.00322-.03052.030155-.03052.033373 0 .046909-.02228.030082-.0495-.016828-.02723-.00913-.0495.017105-.0495.054497 0 .3697688-.5373618.37032-.6311885.000198-.034035.016366-.061881.035924-.061881.049324 0 .2119642-.2552292.2119642-.3326327 0-.034874.015296-.063407.033991-.063407s.1376844-.1559406.2644209-.3465346c.1267351-.1906052.2148546-.3465458.1958197-.3465458-.019035 0 .0009604-.027847.044434-.061881.0434737-.0340348.2456949-.2846536.4493804-.5569309.8965777-1.1985025 2.2752802-2.6198158 3.426144-3.5320335.3539604-.2805624.7159654-.5721408.8044555-.6479522.08849-.075811.1615995-.1242491.1624653-.1076394.0008663.01661.034282-.013044.074257-.065896.039976-.052852.072683-.080471.072683-.061376 0 .019096.1225248-.046632.2722772-.1460618.1497525-.09943.2722773-.2012199.2722773-.2261996 0-.02498.022435-.031552.049854-.014606.02742.016947.06317-.00389.079445-.046299.016274-.042411.04969-.064688.074257-.049505s.057983-.00709.074257-.049505c.016274-.042411.04872-.065288.072102-.050837s.084166-.013524.1350767-.062165c.05091-.048642.1241243-.095233.1626966-.1035362.038573-.0083.094612-.046942.1245321-.085864.02992-.038922.068905-.056262.086634-.038533.01773.017729.03223.00253.03223-.033773 0-.036304.01396-.052044.03103-.034978.04199.041986.315506-.102994.315506-.1672351 0-.028135.02228-.037387.0495-.02056.02723.016828.0495.00329.0495-.030082 0-.033373.01376-.046918.03058-.030102.03561.035614.92671-.4007597.951375-.4658925.0091-.024116.03698-.031256.06188-.015865.0249.01539.04528.00308.04528-.027366 0-.030442.02228-.04158.0495-.024752.02723.016828.0495.007.0495-.021831 0-.028835.01671-.049789.03713-.046564.106505.016817.21139-.013929.279349-.081888.04181-.041814.08796-.07523.102546-.074257.119722.00798.176988-.00677.23338-.060113.03598-.034035.109972-.069677.164428-.079205.05446-.00953.110148-.031806.123762-.049505.01361-.017699.06931-.039977.123762-.049505.05446-.00953.110149-.031806.123763-.049505.01361-.017699.04703-.033423.07426-.034942.117593-.00656.321782-.08576.321782-.1248145 0-.023421.03342-.029762.07426-.014089.04084.015672.07426.00453.07426-.024752 0-.029286.03342-.040425.07426-.024752.04084.015672.07426.00453.07426-.024752 0-.029286.03342-.040425.07426-.024752.04084.015672.07426.00453.07426-.024752 0-.0292863.03342-.0404249.07426-.024752.04084.015672.07426.00453.07426-.0247525 0-.0292863.03341-.0404249.07426-.0247525.04084.0156724.07426.004534.07426-.0247525 0-.0292863.03341-.0404249.07426-.0247525.04084.0156724.07426.004534.07426-.0247525 0-.0292863.03116-.0412896.06925-.0266741s.08336.00375.100595-.0241441c.01724-.0278948.06405-.0381687.104018-.0228309.03997.0153378.07267.005312.07267-.02228 0-.0275917.04455-.0385155.09901-.0242751.05445.0142404.09901.001715.09901-.0278334 0-.0295488.03342-.0409022.07426-.0252298s.07426.00252.07426-.0292278c0-.0317477.02147-.0444516.04772-.0282309.04318.0266873.562098-.0828459.74436-.15711951.04084-.0166435.111269-.0257711.156505-.0202837.04524.005487.09607-.0123932.112972-.0397346.0169-.0273414.06236-.037572.101025-.0227345.03867.0148374.09882.00935.133683-.0121947.03486-.0215445.108327-.0454428.163261-.0531072.05494-.007664.155574-.0240046.223643-.0363116.490589-.0886987.79263-.12660658.99846-.12531247.0999.00062807.193629-.0182731.208294-.0420026.01467-.0237295.150136-.0329053.301044-.0203908.150909.0125145.274385.003287.274391-.02050523.000011-.04513625 3.253214-.03759461 3.688108.0085498.136139.014445.358911.0387866.49505.0540924.136138.0153058.303217.0340514.371287.0416569.06807.007606.162747.0300235.210396.0498177.04765.0197942.119336.0234404.159305.008103.03997-.0153378.08714-.004485.104813.0241179.01768.0286026.08522.0418575.1501.0294553s.11796-.00076438.11796.0258618c0 .0266261.05569.0377648.123762.0247525.06807-.0130123.123763-.002876.123763.0225242 0 .0254006.05012.0412763.111386.0352793.06126-.005997.149304.005521.195649.0255964.04635.020075.107607.0220725.136138.004439.02853-.0176335.05188-.005871.05188.0261395 0 .0333512.04126.0474107.09664.0329295.05315-.013899.103274-.0109071.111386.006649.02239.0484602.680888.21228456.730367.1817051.02379-.0147029.05088-.003845.06021.0241301.0093.0279745.08915.0559598.177397.0621896.08824.00623.160487.0258129.160541.043518.000099.0361461.485758.1684501.581782.15849367.03403-.003529.06188.0157691.06188.0428846 0 .027115.03342.036478.07426.020806s.07426-.011722.07426.00878c0 .044993.451402.2177884.48394.1852509.01259-.012593.05653.010739.09764.05185s.10529.063026.142621.048701c.03733-.014325.06787-.00894.06787.01196 0 .038154.328096.1791004.420792.1807681.02723.0004901.08022.030018.11777.065619.03755.0356.09881.053008.136138.038682.03733-.014325.06787-.00315.06787.024827 0 .02798.02228.037105.0495.020277.02723-.016828.0495-.01113.0495.012662 0 .060505.343251.2179833.39944.1832567.02536-.015672.04611-.00359.04611.026854 0 .030442.02228.04158.0495.024752.02723-.016828.0495-.00569.0495.024752s.02228.04158.0495.024752c.02723-.016828.0495-.00569.0495.024753 0 .030441.02228.04158.0495.024752.02723-.016828.0495-.00569.0495.024752s.02228.04158.0495.024753c.02723-.016828.0495-.00569.0495.024752 0 .030441.02228.04158.0495.024752.02723-.016828.0495-.00569.0495.024752s.02228.04158.0495.024752c.02723-.016828.0495-.00569.0495.024752 0 .030441.02228.04158.0495.024752.02723-.016828.0495-.00569.0495.024752s.02228.04158.0495.024752c.02723-.016828.0495-.00746.0495.020825 0 .064163.372497.2584935.414663.2163282.01699-.016985.03088-.00118.03088.035124s.0145.051501.03223.033773c.01773-.017729.05671-.0003861.08663.038533.02992.038922.08774.077561.128478.085864.04074.0083.09644.041719.123763.074257.02733.032538.08124.065954.119816.074257.03857.0083.111786.054895.162697.1035363.05091.048642.114029.075173.140263.058959.02623-.016214.0477-.00994.0477.013942 0 .047499 1.122173.8183768 1.156074.7941667.01149-.0082.06721.04078.123827.1088491.05662.068069.103685.108768.10459.090442.000906-.018326.06402.026228.140262.09901.07624.072782.370996.321687.655017.5531226.490342.3995569 2.033402 1.8594352 2.000335 1.8925025-.0086.00857.1348.1770812.318596.3744733.183796.1973915.32605.3670188.31612.376949-.0099.00993.03806.062192.106636.1161366.06858.053945.113134.1096381.09901.1237624-.01412.014124.03419.072775.107365.1303346.07317.057559.113333.1053946.08924.1063005-.02409.000906.0088.04546.07306.09901.06428.053549.0977.098104.07426.09901s.0066.042695.06667.092864c.06011.050169.09843.1020638.08518.1153208-.01326.013257.04118.093993.120977.1794128.0798.08542.130574.1560179.112843.1568837-.01773.0008663.011.034282.06386.074257.05285.039976.08038.072683.06118.072683s.02405.089109.09613.1980198c.0721338.10891294.1517348.19802184.1769518.19802184.02522 0 .03198.022435.01504.049855-.01695.02742.0039.06317.0463.079445.04241.016274.06469.04969.04951.074257s.0071.057983.0495.074257c.04241.016274.06529.04872.05084.072102s.01909.087879.07454.1433278c.05545.055449.09525.1112317.08844.1239628-.0068.012731.02639.068424.07377.1237624.04738.055338.07397.1006149.05908.1006149s.01241.066832.06066.1485152c.04825.08168.106519.148515.129483.148515.02296 0 .02799.02228.01116.0495-.01683.02723-.0033.04951.03008.04951.03337 0 .04704.01363.03038.0303-.03284.03284.256716.577871.32148.605119.02171.0091.02688.03698.01149.06188s-.0031.04528.02737.04528c.03044 0 .04158.02228.02475.0495-.01683.02723-.0033.0495.03008.0495.03337 0 .04716.01352.03064.03004-.03679.03679.195313.572889.267296.617377.02845.01758.04983.04619.0475.06356-.01439.107543.0033.181158.05765.239633.03404.03663.0688.09948.07726.139674.04153.197352.226121.642386.266456.642386.02519 0 .03361.01972.01871.04382-.03551.05746.06787.352222.123537.352222.02371 0 .03028.03342.01461.07426s-.0045.07426.02475.07426c.02929 0 .04042.03342.02475.07426s-.0045.07426.02475.07426c.02929 0 .04042.03342.02475.07426s-.0045.07426.02475.07426c.02929 0 .04042.03342.02475.07426s-.0045.07426.02475.07426c.02929 0 .04042.03342.02475.07426s-.0094.07431.01393.07437c.02333.000049.04492.06925.04796.153742.003.08449.02532.167985.0495.18553.02418.01755.0489.09852.05492.179941.006.08142.03401.155725.06219.16512.02818.0094.03941.03623.02494.05963-.02827.04574.121761.699942.169949.74107.01595.01361.03455.113854.04133.222756.0068.108902.03139.204358.05469.212124.0233.0078.03186.06903.01903.136155-.01283.06712-.0023.122035.02337.122035.02569 0 .03689.06683.02491.148515-.01276.08695.000396.148514.03177.148514.02946 0 .04075.03342.02507.07426-.01567.04084-.01178.113242.0087.160891.02043.04765.03228.147896.02632.222772-.006.07488.01003.136139.03554.136139.0255 0 .0358.05532.02287.122937-.01293.06761-.0066.162293.01397.210396.02061.0481.03265.148217.02675.222478-.0059.07426.0044.159454.02284.189319.05371.0869.06557.468537.06609 2.126157.00054 1.731056-.0098 2.084514-.06322 2.171031-.02003.03241-.03005.119703-.02226.19398.0078.07428-.0012.159919-.01999.190316-.01879.0304-.04379.186324-.05556.346505-.01177.16018-.03695.330222-.05595.377871-.019.04765-.02227.11861-.0073.157693.015.03908.0064.07807-.01907.08663-.02548.0086-.05208.132371-.0591.275121-.007.14275-.03207.259705-.05567.259901-.0236.000198-.03126.04489-.01702.09931.01423.05443.0038.112636-.02329.12935-.02704.01671-.03818.07243-.02474.123812.01344.05138.0016.09342-.02621.09342-.02786 0-.03899.04455-.02475.09901s.0031.09901-.02475.09901c-.02786 0-.03899.04456-.02475.09901.01424.05446.0031.09901-.02475.09901-.02786 0-.03899.04455-.02475.09901.01424.05445.0031.09901-.02475.09901-.02786 0-.03927.04349-.02537.09664s.0049.103431-.02003.111736c-.02492.0083-.0504.0873-.05663.175543-.0062.08824-.02581.160487-.04352.160541-.03615.000099-.16845.485758-.158494.581782.0035.03403-.01577.06188-.04289.06188-.02711 0-.03648.03342-.0208.07426.01567.04084.0045.07426-.02475.07426-.02929 0-.04043.03341-.02475.07426.01567.04084.0087.07426-.01552.07426-.04252 0-.130012.283354-.11082.358911.0052.02042-.01523.03713-.04537.03713s-.04253.03198-.02753.07106.0083.07807-.01492.08663c-.0232.0086-.0498.06013-.0591.114584-.0093.05446-.03139.110149-.04909.123763-.0177.01361-.03998.06931-.04951.123762-.0095.05445-.04645.129729-.08205.167274-.0356.03755-.05301.09881-.03868.136139.01432.03733.0032.06787-.02483.06787-.02798 0-.03711.02228-.02028.0495.01683.02723.0092.0495-.01699.0495-.05696 0-.160644.276164-.119234.317574.01593.01593.0017.02896-.03172.02896-.03337 0-.04809.02037-.0327.04528.01539.0249.0082.05275-.01595.06188-.06519.02464-.600364 1.113852-.564768 1.149448.01679.01679.0067.03052-.02251.03052-.05834 0-.375068.532189-.37565.631189-.000198.03403-.01555.06188-.03411.06188s-.186943.23948-.374187.532178c-.423824.662514-1.221331 1.726798-1.734231 2.314356-.445866.510767-1.443951 1.554153-1.465787 1.532317-.0081-.0081-.198601.157835-.423441.368639-.224839.210804-.417119.374961-.427286.364793-.01017-.01017-.06262.03762-.116569.106203-.05394.06858-.109638.113135-.123763.09901-.01412-.01412-.07277.03419-.130334.107365-.05756.07317-.104654.118181-.104654.100013 0-.01817-.122525.05947-.272277.172539-.149752.113064-.272277.226487-.272277.25205 0 .02556-.02075.03365-.04612.01798-.02536-.01568-.07749.01628-.115826.07102-.03834.05474-.08389.08534-.101232.068-.01734-.01734-.04552.005-.06263.04954-.01711.04458-.0512.06864-.07577.05345-.02457-.01518-.05798.0071-.07426.0495-.01628.04241-.04969.06469-.07426.04951s-.05798.0071-.07426.04951c-.01627.04241-.04969.06469-.07426.0495-.02457-.01518-.05798.0071-.07426.0495-.01627.04241-.04969.06469-.07426.04951s-.05798.0071-.07426.0495c-.01627.04241-.04872.06529-.0721.05084s-.08788.01909-.143328.07454c-.05545.05545-.111231.09525-.123963.08844-.01273-.0068-.07399.03116-.136138.08437-.06215.05321-.12413.09201-.137744.08623-.01361-.0058-.06374.02286-.111386.06366-.04765.0408-.08663.062-.08663.04711s-.06683.01241-.148515.06066c-.08168.04825-.148515.106519-.148515.129483 0 .02296-.02228.02799-.0495.01116-.02723-.01683-.0495-.0033-.0495.03008 0 .03337-.01373.04695-.0305.03017-.03559-.03559-1.223845.549007-1.248478.614223-.0091.02418-.03698.03137-.06188.01598s-.04528-.0031-.04528.02737c0 .03044-.02061.04261-.0458.02704-.0571-.03529-.300739.07192-.300739.132337 0 .02447-.0192.03261-.04267.01811-.05403-.03339-.452375.120708-.452375.175002 0 .02224-.03054.02872-.06787.0144s-.101511.0076-.142621.0487c-.04111.04111-.08493.06457-.09737.05213-.03504-.03504-.335703.08106-.335703.129632 0 .02371-.03342.03029-.07426.01461-.04084-.01567-.07426-.0045-.07426.02475 0 .02929-.03342.04042-.07426.02475s-.07426-.0045-.07426.02475c0 .02929-.03342.04043-.07426.02475-.04084-.01567-.07426-.0045-.07426.02475 0 .02929-.03342.04042-.07426.02475s-.07426-.0025-.07426.02923c0 .03175-.02155.04441-.04788.02813-.05787-.03577-.762046.17024-.785555.229813-.0091.02314-.0357.03028-.05904.01585-.0509-.03146-.908383.17607-.928563.224732-.0078.01871-.06902.02351-.136138.01068-.06712-.01283-.122036-.0015-.122036.02508 0 .02663-.05569.03777-.123762.02475-.06807-.01301-.123922-.0044-.124117.01924-.000198.0236-.117151.04864-.259901.05566-.142751.007-.266184.0325-.274296.05663-.0081.02412-.0579.03258-.110646.01878-.05274-.01379-.135215-.0081-.183271.01262-.04806.02073-.137123.03284-.19793.0269-.06081-.0059-.13618.005-.167497.0244-.06243.03858-.334264.0638-.700384.06497-.129724.000396-.253453.01163-.274952.02491-.0215.01329-.532574.037-1.13572.0527s-1.12662.04005-1.163276.05412c-.03666.01407-.07888.01334-.09383-.0016zm-7.247298-17.176163c1.47154-.553887 2.288989-2.078832 1.909579-3.562309-.142421-.55686-.364303-.936641-.799684-1.368769-.619525-.614894-1.26747-.885626-2.124299-.8876-1.1085997-.0026-2.1792012.676488-2.6625423 1.688746-.2279208.477333-.3057792.801733-.3057792 1.274037 0 .506853.085078.879278.3059941 1.339469.383594.799068 1.1659935 1.414545 2.0454914 1.609093.50047.110705 1.195883.0712 1.63124-.09267zm8.944844.02011c.90344-.303368 1.643296-1.068444 1.93698-2.003009.158897-.505645.154612-1.252042-.01007-1.754937-.286784-.875734-1.027838-1.627079-1.912288-1.938845-.359895-.126862-1.115637-.176005-1.531295-.09958-1.034087.190146-2.050596 1.157022-2.325328 2.211787-.04161.15977-.07566.496293-.07566.747831 0 .759639.266848 1.437745.791816 2.012144.42851.468859 1.039041.81564 1.633927.92807.364471.06888 1.138529.0152 1.491926-.103466zm8.904114.02388c.948044-.281965 1.739423-1.060931 2.034038-2.002134.132773-.424166.143767-1.241435.02232-1.659196-.271276-.933157-.917219-1.640391-1.833236-2.007181-.724129-.289956-1.658881-.247611-2.380939.107857-.396526.195209-.938221.687922-1.207484 1.098298-.558012.850453-.611952 1.97913-.141233 2.955272.325673.675356 1.235037 1.390862 1.985531 1.562256.379923.08676 1.135979.05934 1.521003-.05517z" fill="#ececec" stroke="#ededed" stroke-width=".049505"/></svg>